<svg width="22" height="22" viewBox="0 0 22 22" fill="none" xmlns="http://www.w3.org/2000/svg">
<g clip-path="url(#clip0_23_2891)">
<path d="M10.3963 5.31006L0.248783 15.4857C-0.0834926 15.8191 -0.082934 16.3589 0.250502 16.6917C0.583895 17.0243 1.12397 17.0234 1.4565 16.69L11 7.12003L20.5435 16.6903C20.8761 17.0237 21.4158 17.0246 21.7493 16.6921C21.9164 16.5252 22 16.3066 22 16.088C22 15.87 21.917 15.6523 21.751 15.4858L11.6037 5.31006C11.444 5.14949 11.2266 5.05938 11 5.05938C10.7735 5.05938 10.5563 5.14975 10.3963 5.31006Z" fill="#037E8C"/>
</g>
<defs>
<clipPath id="clip0_23_2891">
<rect width="22" height="22" fill="white" transform="matrix(0 -1 1 0 0 22)"/>
</clipPath>
</defs>
</svg>
