<svg width="42" height="42" viewBox="0 0 42 42" fill="none" xmlns="http://www.w3.org/2000/svg">
<circle cx="21" cy="21" r="21" fill="#037E8C"/>
<path fill-rule="evenodd" clip-rule="evenodd" d="M31.0604 13.9394C31.3416 14.2207 31.4996 14.6022 31.4996 14.9999C31.4996 15.3977 31.3416 15.7791 31.0604 16.0604L19.0604 28.0604C18.7791 28.3416 18.3976 28.4996 17.9999 28.4996C17.6021 28.4996 17.2207 28.3416 16.9394 28.0604L10.9394 22.0604C10.6661 21.7775 10.5149 21.3986 10.5184 21.0053C10.5218 20.612 10.6795 20.2358 10.9577 19.9577C11.2358 19.6796 11.612 19.5218 12.0053 19.5184C12.3986 19.515 12.7775 19.6662 13.0604 19.9394L17.9999 24.8789L28.9394 13.9394C29.2207 13.6582 29.6021 13.5002 29.9999 13.5002C30.3976 13.5002 30.7791 13.6582 31.0604 13.9394Z" fill="white"/>
</svg>
