<svg width="24" height="24" viewBox="0 0 24 24" fill="none" xmlns="http://www.w3.org/2000/svg">
<path d="M6.01926 4.50195C5.62807 4.50156 5.24065 4.57832 4.87916 4.72784C4.51768 4.87736 4.18923 5.0967 3.91262 5.37331C3.63601 5.64992 3.41666 5.97837 3.26714 6.33986C3.11763 6.70134 3.04087 7.08877 3.04126 7.47995C3.04126 9.71295 6.01926 13.01 6.01926 13.01C6.01926 13.01 8.99726 9.71295 8.99726 7.47995C8.99766 7.08877 8.9209 6.70134 8.77138 6.33986C8.62186 5.97837 8.40252 5.64992 8.12591 5.37331C7.84929 5.0967 7.52084 4.87736 7.15936 4.72784C6.79787 4.57832 6.41045 4.50156 6.01926 4.50195ZM6.01926 8.54295C5.80902 8.54295 5.6035 8.48061 5.42869 8.36381C5.25388 8.247 5.11763 8.08099 5.03718 7.88675C4.95672 7.69251 4.93567 7.47878 4.97669 7.27257C5.0177 7.06637 5.11894 6.87696 5.26761 6.7283C5.41627 6.57964 5.60568 6.4784 5.81188 6.43738C6.01808 6.39636 6.23182 6.41742 6.42605 6.49787C6.62029 6.57833 6.78631 6.71457 6.90311 6.88938C7.01992 7.06419 7.08226 7.26971 7.08226 7.47995C7.082 7.7618 6.96992 8.03202 6.77062 8.23132C6.57133 8.43061 6.3011 8.54269 6.01926 8.54295Z" fill="#121214"/>
<path d="M21.0272 11.296V6.99605C21.0202 6.5445 20.9515 6.09603 20.8232 5.66305C20.4951 4.51837 19.7689 3.52853 18.7755 2.87191C17.7821 2.21529 16.5869 1.93508 15.4052 2.08176C14.2234 2.22845 13.133 2.7924 12.3303 3.67197C11.5276 4.55154 11.0655 5.68889 11.0272 6.87905V7.12705L11.0172 7.99705V17.949H11.0132V17.99C11.0132 18.5205 10.8025 19.0292 10.4274 19.4043C10.0523 19.7793 9.54362 19.99 9.01318 19.99C8.48275 19.99 7.97404 19.7793 7.59897 19.4043C7.2239 19.0292 7.01318 18.5205 7.01318 17.99C7.01318 17.978 7.01618 17.966 7.01718 17.953H7.01318V16.01H5.01318V18.01H5.01518C5.01585 19.0704 5.4377 20.087 6.18794 20.8363C6.93818 21.5856 7.95535 22.0062 9.01568 22.0055C10.076 22.0049 11.0927 21.583 11.842 20.8328C12.5913 20.0826 13.0118 19.0654 13.0112 18.005H13.0132V17.023H13.0182V8.99705L13.0282 7.12705V6.88005C13.0567 6.09281 13.3936 5.34834 13.9662 4.80733C14.5388 4.26631 15.3011 3.97213 16.0887 3.98827C16.8763 4.00442 17.626 4.3296 18.1759 4.89363C18.7259 5.45765 19.032 6.2153 19.0282 7.00305V11.278C18.6452 11.4947 18.3445 11.8317 18.1725 12.2367C18.0006 12.6417 17.9671 13.0921 18.0772 13.5181C18.1873 13.9441 18.4349 14.3219 18.7816 14.5928C19.1283 14.8638 19.5546 15.0128 19.9946 15.0168C20.4346 15.0207 20.8636 14.8794 21.2151 14.6147C21.5666 14.3501 21.8209 13.9768 21.9387 13.5529C22.0564 13.1289 22.031 12.678 21.8664 12.27C21.7018 11.8619 21.4072 11.5196 21.0282 11.296H21.0272Z" fill="#121214"/>
</svg>
