<svg width="13" height="16" viewBox="0 0 13 16" fill="none" xmlns="http://www.w3.org/2000/svg">
<path d="M8.10651 10.25C10.9882 10.25 13.0032 8.15968 13.0032 5.15484C13.0032 2.15 10.9882 0.125 8.10651 0.125H2.57609C2.35174 0.125 2.16984 0.313895 2.16984 0.546875V7.81128H0.409424C0.185072 7.81128 0.00317383 8.00018 0.00317383 8.23316V9.82812C0.00317383 10.0611 0.185072 10.25 0.409424 10.25H2.16984V11.375H0.409424C0.185072 11.375 0.00317383 11.5639 0.00317383 11.7969V13.2031C0.00317383 13.4361 0.185072 13.625 0.409424 13.625H2.16984V15.4531C2.16984 15.6861 2.35174 15.875 2.57609 15.875H4.55859C4.78294 15.875 4.96484 15.6861 4.96484 15.4531V13.625H10.4303C10.6546 13.625 10.8365 13.4361 10.8365 13.2031V11.7969C10.8365 11.5639 10.6546 11.375 10.4303 11.375H4.96484V10.25H8.10651ZM4.96484 2.54192H7.62984C9.21151 2.54192 10.1648 3.56532 10.1648 5.15484C10.1648 6.76612 9.21151 7.81128 7.58651 7.81128H4.96484V2.54192Z" fill="#121214"/>
</svg>
