<svg width="10" height="14" viewBox="0 0 10 14" fill="none" xmlns="http://www.w3.org/2000/svg">
<g id="fa-solid:ruble-sign" clip-path="url(#clip0_1_62)">
<path id="Vector" d="M6.23309 8.75C8.44976 8.75 9.99976 7.1242 9.99976 4.7871C9.99976 2.45 8.44976 0.875 6.23309 0.875H1.97892C1.80634 0.875 1.66642 1.02192 1.66642 1.20312V6.85322H0.312256C0.139678 6.85322 -0.000244141 7.00014 -0.000244141 7.18134V8.42188C-0.000244141 8.60308 0.139678 8.75 0.312256 8.75H1.66642V9.625H0.312256C0.139678 9.625 -0.000244141 9.77192 -0.000244141 9.95312V11.0469C-0.000244141 11.2281 0.139678 11.375 0.312256 11.375H1.66642V12.7969C1.66642 12.9781 1.80634 13.125 1.97892 13.125H3.50392C3.6765 13.125 3.81642 12.9781 3.81642 12.7969V11.375H8.02059C8.19317 11.375 8.33309 11.2281 8.33309 11.0469V9.95312C8.33309 9.77192 8.19317 9.625 8.02059 9.625H3.81642V8.75H6.23309ZM3.81642 2.75483H5.86642C7.08309 2.75483 7.81642 3.5508 7.81642 4.7871C7.81642 6.04032 7.08309 6.85322 5.83309 6.85322H3.81642V2.75483Z" fill="#121214"/>
</g>
<defs>
<clipPath id="clip0_1_62">
<rect width="10" height="14" fill="white" transform="translate(-0.000244141)"/>
</clipPath>
</defs>
</svg>
