<svg width="41" height="41" viewBox="0 0 41 41" fill="none" xmlns="http://www.w3.org/2000/svg">
<circle cx="20.5" cy="20.5" r="20.5" fill="#121214"/>
<path d="M27.9479 22.8289C27.5797 22.6397 25.7453 21.7411 25.4041 21.6195C25.0629 21.4911 24.8129 21.4303 24.5662 21.8087C24.3163 22.1836 23.6068 23.0181 23.3838 23.2715C23.1676 23.5214 22.948 23.5519 22.5798 23.366C20.3907 22.2715 18.9549 21.4134 17.5124 18.9371C17.1306 18.2783 17.8941 18.3256 18.6069 16.9034C18.7286 16.6534 18.6677 16.4405 18.5732 16.2514C18.4786 16.0622 17.7353 14.2311 17.4245 13.4845C17.1239 12.7582 16.8131 12.8595 16.5867 12.846C16.3705 12.8325 16.1239 12.8325 15.8739 12.8325C15.6239 12.8325 15.2219 12.9271 14.8807 13.2953C14.5395 13.6703 13.5767 14.5723 13.5767 16.4034C13.5767 18.2344 14.9111 20.008 15.0935 20.258C15.2827 20.508 17.7184 24.2647 21.4582 25.8829C23.823 26.9031 24.7487 26.991 25.9311 26.8153C26.6507 26.7072 28.1337 25.9167 28.4411 25.0417C28.7486 24.1701 28.7486 23.4235 28.6574 23.2681C28.5661 23.1025 28.3162 23.0079 27.9479 22.8289Z" fill="white"/>
<path d="M35.0997 13.9947C34.3362 12.1805 33.2416 10.5522 31.8464 9.15356C30.4512 7.75832 28.8228 6.66037 27.0053 5.90026C25.1472 5.11987 23.1743 4.72461 21.1406 4.72461H21.073C19.0258 4.73474 17.0427 5.14014 15.1779 5.93742C13.3772 6.70767 11.7624 7.80224 10.3807 9.19747C8.99898 10.5927 7.91454 12.2143 7.16456 14.0217C6.38755 15.8933 5.99567 17.8831 6.00581 19.9303C6.01594 22.2749 6.57674 24.6025 7.62739 26.6835V31.8185C7.62739 32.6766 8.32332 33.3726 9.18141 33.3726H14.3198C16.4008 34.4232 18.7285 34.984 21.073 34.9941H21.144C23.1676 34.9941 25.1303 34.6023 26.9783 33.8354C28.7857 33.082 30.4106 32.001 31.8025 30.6192C33.1977 29.2375 34.2957 27.6227 35.0625 25.8221C35.8598 23.9572 36.2652 21.9742 36.2753 19.9269C36.2855 17.8696 35.8868 15.873 35.0997 13.9947ZM29.9951 28.7916C27.6269 31.1361 24.4851 32.4266 21.1406 32.4266H21.0831C19.046 32.4165 17.0224 31.9098 15.2353 30.9571L14.9515 30.8051H10.1949V26.0484L10.0429 25.7646C9.09019 23.9775 8.58345 21.9539 8.57331 19.9168C8.5598 16.5486 9.84693 13.3866 12.2084 11.0049C14.5664 8.62316 17.7184 7.30563 21.0865 7.29211H21.144C22.8331 7.29211 24.4716 7.61981 26.0155 8.26844C27.5222 8.90018 28.8735 9.80894 30.0356 10.9711C31.1944 12.1298 32.1065 13.4845 32.7383 14.9913C33.3937 16.552 33.7213 18.2074 33.7146 19.9168C33.6943 23.2816 32.3734 26.4335 29.9951 28.7916Z" fill="white"/>
</svg>
